<?xml version="1.0" ?><!DOCTYPE svg  PUBLIC '-//W3C//DTD SVG 1.1//EN'  'http://www.w3.org/Graphics/SVG/1.1/DTD/svg11.dtd'><svg enable-background="new 0 0 1024 1024" height="1024px" id="Steam_2_" version="1.1" viewBox="0 0 1024 1024" width="1024px" xml:space="preserve" xmlns="http://www.w3.org/2000/svg" xmlns:xlink="http://www.w3.org/1999/xlink"><g id="Background"><g id="bg"><path d="M64.513,293.264c0-24.062,16.985-53.702,37.746-65.866L474.755,9.139c20.76-12.164,54.731-12.164,75.492,0    l372.496,218.259c20.76,12.164,37.745,41.804,37.745,65.866v437.488c0,24.062-16.985,53.702-37.745,65.866l-372.496,218.259    c-20.761,12.164-54.732,12.164-75.492,0L102.259,796.618c-20.761-12.164-37.746-41.806-37.746-65.866V293.264z" fill="#141414"/></g><path d="M949.401,255.927c0,0-1.071-2.074-3.373-5.443   c-1.864-2.731-3.841-5.701-6.267-8.394c-5.126-5.687-6.867-7.118-7.564-7.743c-2.703-2.416-5.994-4.923-9.17-6.784   C920.708,226.204,550.933,9.539,550.933,9.539s-6.276-3.633-11.965-5.456c-5.688-1.823-9.698-2.625-13.854-3.208   C520.958,0.292,515.199,0,511.48,0c-3.72,0-12.396,0.729-16.114,1.604s-6.437,1.549-7.42,1.877   c-0.984,0.328-3.253,1.121-4.184,1.422c-0.93,0.301-5.223,2.214-5.468,2.352c-0.246,0.138-1.685,0.796-2.494,1.27   c-0.808,0.474-360.534,211.251-360.534,211.251s-15.173,8.302-21.151,13.406c-2.559,2.185-5.398,4.99-7.852,7.774   c-3.278,3.719-5.954,7.385-7.205,9.324c-0.945,1.466-2.338,3.624-3.582,5.852c-1.617,2.897-3.108,5.984-3.76,7.328   c-1.191,2.459-3.376,8.258-3.923,10.008s-1.587,5.673-1.75,6.599c-0.042,0.24-0.712,3.609-0.766,4.01   c-0.055,0.401-0.452,2.994-0.547,4.375c-0.034,0.493-0.218,2.971-0.218,3.044c-0.001,0.073-0.002,440.405-0.002,440.405   s0.357,5.206,0.438,5.778c0.029,0.207,0.465,3.52,0.802,4.959c0.219,0.933,0.656,3.063,0.948,4.083   c0.291,1.021,0.747,2.702,0.984,3.426c0.219,0.67,0.984,2.991,1.239,3.684c0.256,0.691,1.282,3.33,1.568,4.011   c0.293,0.697,1.859,4.119,1.969,4.338S949.401,255.927,949.401,255.927z" enable-background="new    " fill="#FFFFFF" id="bg-light" opacity="0.2"/></g><g id="Steam_1_"><ellipse cx="723.765" cy="436.806" fill="#FFFFFF" rx="51.334" ry="50.725"/><path d="M594.313,525.338c-53.412,0-96.715,42.79-96.715,95.567c0,52.78,43.303,95.568,96.715,95.568   c53.411,0,96.715-42.787,96.715-95.568C691.027,568.128,647.724,525.338,594.313,525.338z M594.313,685.25   c-35.904,0-65.113-28.866-65.113-64.345s29.211-64.343,65.113-64.343c35.904,0,65.113,28.864,65.113,64.343   S630.217,685.25,594.313,685.25z" fill="#FFFFFF"/><path d="M723.765,328.525c-60.521,0-109.579,48.48-109.579,108.279c0,59.806,49.06,108.283,109.579,108.283   c60.518,0,109.578-48.479,109.578-108.283C833.343,377.005,784.282,328.525,723.765,328.525z M723.765,509.709   c-40.679,0-73.776-32.707-73.776-72.904c0-40.195,33.099-72.899,73.776-72.899c40.679,0,73.776,32.703,73.776,72.899   C797.542,477.001,764.444,509.709,723.765,509.709z" fill="#FFFFFF"/><path d="M284.064,418.179c-51.035,0-92.406,40.885-92.406,91.311c0,50.428,41.371,91.312,92.406,91.312   c51.03,0,92.404-40.884,92.404-91.312C376.468,459.063,335.094,418.179,284.064,418.179z M284.064,570.966   c-34.307,0-62.216-27.578-62.216-61.477s27.909-61.478,62.216-61.478c34.305,0,62.213,27.578,62.213,61.478   C346.277,543.388,318.368,570.966,284.064,570.966z" fill="#FFFFFF"/><polygon fill="#FFFFFF" points="688.034,605.869 592.518,525.338 616.599,459.511 751.104,541.69  "/><path d="M610.889,578.53c21.138,7.491,31.552,32.066,23.265,54.885l0,0c-8.288,22.816-32.143,35.235-53.276,27.741   L274.739,552.577c-21.136-7.493-31.552-32.067-23.262-54.886l0,0c8.287-22.813,32.139-35.234,53.273-27.74L610.889,578.53z" fill="#FFFFFF"/></g></svg>